<?xml version="1.0" encoding="utf-8"?>
<!-- Generator: Adobe Illustrator 19.2.1, SVG Export Plug-In . SVG Version: 6.00 Build 0)  -->
<svg version="1.1" id="layer" xmlns="http://www.w3.org/2000/svg" xmlns:xlink="http://www.w3.org/1999/xlink" x="0px" y="0px"
	 viewBox="0 0 652 652" style="enable-background:new 0 0 652 652;" xml:space="preserve">
<path d="M535.7,285.4L535.7,285.4c-29.5-0.4-53.6,23.2-54,52.6c0,0.7,0,1.3,0,2c-1.1,29.4,21.9,54.2,51.3,55.3c0.9,0,1.8,0,2.7,0
	c29.5,0,53.4-23.8,53.4-53.3c0-0.7,0-1.4,0-2c1.1-29.1-21.6-53.5-50.6-54.6C537.5,285.4,536.6,285.4,535.7,285.4z M535.7,421.4
	L535.7,421.4c-51.3,0-85.3-36-85.3-81.3s34-80.7,85.3-80.7S621,294.7,621,340S587,421.4,535.7,421.4z M415,270.7L415,270.7
	c7.3-17.3,37.3-5.3,28,12.7L387.7,396c-8.7,18-14.7,21.3-22,21.3c-7.3,0-14-3.3-23.3-21.3L287,283.4c-9.3-18,22-30,28.7-12.7l50,108
	L415,270.7z M229.7,276.7L229.7,276.7c0-19.3,30-18.7,30,0v78.7c0,25.3,4,34,11.3,34.7c7.3,0.7,12.7,27.3-5.3,27.3s-36-16.7-36-52
	C229.7,365.4,229.7,276.7,229.7,276.7z M260.3,236L260.3,236c-0.3,8.3-7,15-15.3,15.3c-8.5,0-15.3-6.9-15.3-15.3s6.9-15.3,15.3-15.3
	C253.5,220.7,260.3,227.6,260.3,236z M106.3,394.7L106.3,394.7c-29.1,0.4-53-22.9-53.4-52c0-0.9,0-1.8,0-2.7
	c-1.1-29.4,21.9-54.2,51.3-55.3c0.7,0,1.4,0,2,0c29.5-0.4,53.6,23.2,54,52.6c0,0.9,0,1.8,0,2.7c0.7,29.4-22.5,53.9-52,54.7
	C107.7,394.7,107,394.7,106.3,394.7z M202.3,390L202.3,390c-6.7-0.7-9.3-6-10.7-21.3V340l0,0c0-45.3-34-81.3-85.3-81.3
	S21,294.7,21,340s34,81.3,85.3,81.3c22.1,0.4,43.5-7.4,60-22c5.3,11.9,17.7,19.1,30.7,18C215.7,417.4,215,392.7,202.3,390z"/>
</svg>
